<mxfile host="app.diagrams.net" modified="2023-07-29T15:00:38.780Z" agent="Mozilla/5.0 (Windows NT 10.0; Win64; x64) AppleWebKit/537.36 (KHTML, like Gecko) Chrome/115.0.0.0 Safari/537.36" etag="WRnU-ukE9X7JeR_XNBEK" version="21.6.6" type="github">
  <diagram name="Diagrama de Classes" id="zh4k1ejw2BZk4jLgwsIu">
    <mxGraphModel dx="756" dy="421" grid="1" gridSize="10" guides="1" tooltips="1" connect="1" arrows="1" fold="1" page="1" pageScale="1" pageWidth="1169" pageHeight="1654" math="0" shadow="0">
      <root>
        <mxCell id="0" />
        <mxCell id="1" parent="0" />
        <mxCell id="kF7n9UkWVou8M44sddUv-1" value="Usuario" style="swimlane;fontStyle=1;align=center;verticalAlign=top;childLayout=stackLayout;horizontal=1;startSize=26;horizontalStack=0;resizeParent=1;resizeParentMax=0;resizeLast=0;collapsible=1;marginBottom=0;whiteSpace=wrap;html=1;" vertex="1" parent="1">
          <mxGeometry x="640" y="120" width="260" height="290" as="geometry" />
        </mxCell>
        <mxCell id="kF7n9UkWVou8M44sddUv-2" value="- codUsuario: long&lt;br&gt;- nomeUsuario: String&lt;br&gt;- emailUsuario: String&lt;br&gt;- senha: String&lt;br&gt;- categoria: String" style="text;strokeColor=none;fillColor=none;align=left;verticalAlign=top;spacingLeft=4;spacingRight=4;overflow=hidden;rotatable=0;points=[[0,0.5],[1,0.5]];portConstraint=eastwest;whiteSpace=wrap;html=1;" vertex="1" parent="kF7n9UkWVou8M44sddUv-1">
          <mxGeometry y="26" width="260" height="84" as="geometry" />
        </mxCell>
        <mxCell id="kF7n9UkWVou8M44sddUv-3" value="" style="line;strokeWidth=1;fillColor=none;align=left;verticalAlign=middle;spacingTop=-1;spacingLeft=3;spacingRight=3;rotatable=0;labelPosition=right;points=[];portConstraint=eastwest;strokeColor=inherit;" vertex="1" parent="kF7n9UkWVou8M44sddUv-1">
          <mxGeometry y="110" width="260" height="8" as="geometry" />
        </mxCell>
        <mxCell id="kF7n9UkWVou8M44sddUv-4" value="+ getCodUsuario(): long&lt;br&gt;+ setCodUsuario(codUsuario: long): void&lt;br&gt;+ getNomeUsuario(): String&lt;br&gt;+ setNomeUsuario(nomeUsuario: String): void&lt;br&gt;+ getEmailUsuario(): String&lt;br&gt;+ setEmailUsuario(emailUsuario: String): void&lt;br&gt;+ getCategoria(): String&lt;br&gt;+ setCategoria(categoria: String): void&lt;br&gt;+ validaUsuario(cod: long): boolean&lt;br&gt;+ codificaSenha(senha: String): String&lt;br&gt;+ toString(): String&amp;nbsp;" style="text;strokeColor=none;fillColor=none;align=left;verticalAlign=top;spacingLeft=4;spacingRight=4;overflow=hidden;rotatable=0;points=[[0,0.5],[1,0.5]];portConstraint=eastwest;whiteSpace=wrap;html=1;" vertex="1" parent="kF7n9UkWVou8M44sddUv-1">
          <mxGeometry y="118" width="260" height="172" as="geometry" />
        </mxCell>
        <mxCell id="kF7n9UkWVou8M44sddUv-5" value="Livraria" style="swimlane;fontStyle=1;align=center;verticalAlign=top;childLayout=stackLayout;horizontal=1;startSize=26;horizontalStack=0;resizeParent=1;resizeParentMax=0;resizeLast=0;collapsible=1;marginBottom=0;whiteSpace=wrap;html=1;" vertex="1" parent="1">
          <mxGeometry x="260" y="130" width="260" height="270" as="geometry" />
        </mxCell>
        <mxCell id="kF7n9UkWVou8M44sddUv-6" value="- codLivro: long&lt;br&gt;- nomeLivro: String&lt;br&gt;- nomeAutor: String&lt;br&gt;- status: String" style="text;strokeColor=none;fillColor=none;align=left;verticalAlign=top;spacingLeft=4;spacingRight=4;overflow=hidden;rotatable=0;points=[[0,0.5],[1,0.5]];portConstraint=eastwest;whiteSpace=wrap;html=1;" vertex="1" parent="kF7n9UkWVou8M44sddUv-5">
          <mxGeometry y="26" width="260" height="74" as="geometry" />
        </mxCell>
        <mxCell id="kF7n9UkWVou8M44sddUv-7" value="" style="line;strokeWidth=1;fillColor=none;align=left;verticalAlign=middle;spacingTop=-1;spacingLeft=3;spacingRight=3;rotatable=0;labelPosition=right;points=[];portConstraint=eastwest;strokeColor=inherit;" vertex="1" parent="kF7n9UkWVou8M44sddUv-5">
          <mxGeometry y="100" width="260" height="8" as="geometry" />
        </mxCell>
        <mxCell id="kF7n9UkWVou8M44sddUv-8" value="+ getCodLivro(): long&lt;br&gt;+ setCodLivro(codLivro: long): void&lt;br&gt;+ getNomeLivro(): String&lt;br&gt;+ setNomeLivro(nomeLivro: String): String&lt;br&gt;+ getNomeAutor(): String&lt;br&gt;+ setNomeAutor(nomeAutor: String): void&lt;br&gt;+ getStatus(): String&lt;br&gt;+ setStatus(status: String): void&lt;br&gt;+ retiraLivro(pessoa: Usuario, data: Date): void&lt;br&gt;+ toString(): String" style="text;strokeColor=none;fillColor=none;align=left;verticalAlign=top;spacingLeft=4;spacingRight=4;overflow=hidden;rotatable=0;points=[[0,0.5],[1,0.5]];portConstraint=eastwest;whiteSpace=wrap;html=1;" vertex="1" parent="kF7n9UkWVou8M44sddUv-5">
          <mxGeometry y="108" width="260" height="162" as="geometry" />
        </mxCell>
        <mxCell id="kF7n9UkWVou8M44sddUv-12" style="edgeStyle=orthogonalEdgeStyle;rounded=0;orthogonalLoop=1;jettySize=auto;html=1;exitX=0;exitY=0.5;exitDx=0;exitDy=0;entryX=1;entryY=0.5;entryDx=0;entryDy=0;" edge="1" parent="1" source="kF7n9UkWVou8M44sddUv-2" target="kF7n9UkWVou8M44sddUv-6">
          <mxGeometry relative="1" as="geometry">
            <Array as="points">
              <mxPoint x="640" y="193" />
            </Array>
          </mxGeometry>
        </mxCell>
        <mxCell id="kF7n9UkWVou8M44sddUv-13" style="edgeStyle=orthogonalEdgeStyle;rounded=0;orthogonalLoop=1;jettySize=auto;html=1;exitX=1;exitY=0.5;exitDx=0;exitDy=0;entryX=0;entryY=0.5;entryDx=0;entryDy=0;endArrow=diamondThin;endFill=1;endSize=14;" edge="1" parent="1" source="kF7n9UkWVou8M44sddUv-8" target="kF7n9UkWVou8M44sddUv-4">
          <mxGeometry relative="1" as="geometry">
            <Array as="points">
              <mxPoint x="520" y="324" />
            </Array>
          </mxGeometry>
        </mxCell>
      </root>
    </mxGraphModel>
  </diagram>
</mxfile>
